<svg width="31" height="31" viewBox="0 0 31 31" fill="none" xmlns="http://www.w3.org/2000/svg">
<path d="M15.5 0C12.4344 0 9.43763 0.909059 6.88867 2.61222C4.3397 4.31538 2.35303 6.73615 1.17987 9.5684C0.00671589 12.4007 -0.300236 15.5172 0.297835 18.5239C0.895906 21.5306 2.37214 24.2924 4.53985 26.4601C6.70756 28.6279 9.4694 30.1041 12.4761 30.7022C15.4828 31.3002 18.5993 30.9933 21.4316 29.8201C24.2638 28.647 26.6846 26.6603 28.3878 24.1113C30.0909 21.5624 31 18.5656 31 15.5C31 11.3891 29.367 7.44666 26.4602 4.53984C23.5533 1.63303 19.6109 0 15.5 0ZM15.5 28.7857C12.8723 28.7857 10.3037 28.0065 8.11886 26.5467C5.93403 25.0868 4.23117 23.0119 3.22561 20.5842C2.22004 18.1566 1.95694 15.4853 2.46957 12.9081C2.98221 10.3309 4.24755 7.96362 6.10559 6.10558C7.96363 4.24754 10.3309 2.9822 12.9081 2.46957C15.4853 1.95693 18.1566 2.22004 20.5842 3.2256C23.0119 4.23116 25.0868 5.93403 26.5467 8.11885C28.0065 10.3037 28.7857 12.8723 28.7857 15.5C28.7857 19.0236 27.386 22.4029 24.8944 24.8944C22.4029 27.386 19.0236 28.7857 15.5 28.7857Z" fill="#001AFF"/>
<path d="M15.4999 8.85693C14.1861 8.85693 12.9018 9.24653 11.8093 9.97646C10.7169 10.7064 9.8655 11.7439 9.36272 12.9577C8.85993 14.1715 8.72838 15.5072 8.9847 16.7957C9.24102 18.0843 9.87369 19.268 10.8027 20.197C11.7317 21.126 12.9154 21.7587 14.204 22.015C15.4925 22.2713 16.8282 22.1398 18.042 21.637C19.2558 21.1342 20.2933 20.2828 21.0232 19.1904C21.7532 18.0979 22.1428 16.8136 22.1428 15.4998C22.1428 13.738 21.4429 12.0484 20.1971 10.8026C18.9513 9.5568 17.2617 8.85693 15.4999 8.85693Z" fill="#001AFF"/>
</svg>
