<svg width="26" height="23" viewBox="0 0 26 23" fill="none" xmlns="http://www.w3.org/2000/svg">
<path d="M25.9824 1.15676C26.1091 0.562218 25.5307 0.0609079 24.9664 0.277868L0.490037 9.69311C0.195457 9.80645 0.000610804 10.091 1.43342e-06 10.4087C-0.000607937 10.7264 0.193121 11.0117 0.487294 11.1262L7.36317 13.8021V22.2304C7.36317 22.586 7.60545 22.8949 7.94873 22.9772C8.28972 23.0589 8.64529 22.8954 8.80515 22.5758L11.6489 16.8894L18.5888 22.0792C19.011 22.3949 19.6178 22.1942 19.7714 21.6868C26.251 0.279557 25.9708 1.21054 25.9824 1.15676ZM19.9404 3.85433L8.01692 12.4109L2.88664 10.4144L19.9404 3.85433ZM8.8866 13.6714L19.2798 6.213C10.3366 15.7198 10.8037 15.2195 10.7647 15.2724C10.7067 15.3509 10.8655 15.0448 8.8866 19.0017V13.6714ZM18.6293 20.1979L12.5206 15.6296L23.566 3.8881L18.6293 20.1979Z" fill="white"/>
</svg>
