<svg width="141" height="77" viewBox="0 0 141 77" fill="none" xmlns="http://www.w3.org/2000/svg">
<g filter="url(#filter0_d_512_72)">
<rect x="5.40332" y="0.70166" width="130.597" height="65.2983" rx="10" fill="#F2F2F2" fill-opacity="0.8" shape-rendering="crispEdges"/>
</g>
<path d="M89.9062 25.4926C92.3744 25.4926 94.2818 26.2094 95.7405 27.643C97.1989 29.0765 97.872 30.9879 97.872 33.3772V44.8455H94.7306V42.2176H94.6183C93.2721 44.368 91.3647 45.4432 89.1207 45.4432C87.2133 45.4432 85.5304 44.8457 84.1841 43.6512C82.9499 42.4566 82.1645 40.7841 82.1645 38.9922C82.1645 37.0808 82.8379 35.5276 84.1841 34.333C85.5304 33.1384 87.4378 32.6606 89.6817 32.6606C91.7012 32.6606 93.2721 33.0191 94.5061 33.8552V33.0191C94.5061 31.904 94.1152 30.7891 93.3333 30.0626L93.1597 29.913C92.2622 29.0767 91.1402 28.5989 89.9062 28.5989C87.9988 28.5989 86.5403 29.4352 85.5304 31.1076L82.6134 29.1958C84.4084 26.687 86.7646 25.4926 89.9062 25.4926ZM74.0864 17.369C76.0996 17.369 78.0128 18.115 79.5425 19.506L79.8085 19.7581C81.3792 21.1917 82.1645 23.3422 82.1645 25.6119C82.1645 27.8817 81.3792 29.9126 79.8085 31.4656C78.2376 33.0187 76.3304 33.8548 74.0864 33.8548L68.7011 33.7353V44.8455H65.335V17.369H74.0864ZM90.3548 35.5274C89.0085 35.5274 87.8865 35.8858 86.989 36.6026C86.0914 37.1999 85.6426 38.036 85.6426 39.1111C85.6426 40.067 86.0915 40.9031 86.7646 41.3811C87.55 41.9784 88.4475 42.3367 89.3452 42.3367C90.6017 42.3367 91.8583 41.8163 92.8412 40.8728L93.0476 40.6643C94.1696 39.5891 94.7306 38.275 94.7306 36.8414C93.7208 36.0053 92.2622 35.5273 90.3549 35.5273M74.3111 20.7137H68.7013V30.2713H74.3111C75.5451 30.2713 76.7793 29.7935 77.5647 28.8379C79.3598 27.0459 79.3598 24.0593 77.677 22.2672L77.5647 22.1477C76.6671 21.1921 75.5451 20.5948 74.3109 20.7143M116.048 26.0899L104.94 53.2081H101.575L105.726 43.7705L98.433 26.2094H102.023L107.296 39.7086H107.409L112.57 26.2094H116.048V26.0899Z" fill="#5F6368"/>
<path d="M55.3494 31.3462C55.3494 30.2711 55.2372 29.196 55.125 28.1208H41.1008V34.2135H49.0666C48.7301 36.1247 47.7203 37.9167 46.1496 38.992V42.9342H50.974C53.7789 40.1866 55.3496 36.1247 55.3496 31.3464" fill="#4285F4"/>
<path d="M41.1005 46.7571C45.1395 46.7571 48.5054 45.3235 50.9737 42.9342L46.1494 38.992C44.8029 39.9476 43.12 40.5449 41.1005 40.5449C37.2857 40.5449 33.9198 37.7974 32.7979 33.9745H27.8614V38.0362C30.4419 43.412 35.4907 46.7571 41.1005 46.7571Z" fill="#34A853"/>
<path d="M32.7979 33.9745C32.1249 32.0631 32.1249 29.9128 32.7979 27.8819V23.8202H27.8615C25.7296 28.2404 25.7296 33.4967 27.8615 38.0362L32.7979 33.9745Z" fill="#FBBC04"/>
<path d="M41.1007 21.4308C43.2324 21.4308 45.2519 22.2672 46.8228 23.8201L51.0862 19.2806C48.3933 16.6523 44.8031 15.0994 41.2128 15.2187C35.603 15.2187 30.4421 18.5638 27.9737 23.9396L32.9103 28.0013C33.92 24.1784 37.2859 21.4308 41.1007 21.4308Z" fill="#EA4335"/>
<defs>
<filter id="filter0_d_512_72" x="0.40332" y="0.70166" width="140.597" height="76.2983" filterUnits="userSpaceOnUse" color-interpolation-filters="sRGB">
<feFlood flood-opacity="0" result="BackgroundImageFix"/>
<feColorMatrix in="SourceAlpha" type="matrix" values="0 0 0 0 0 0 0 0 0 0 0 0 0 0 0 0 0 0 127 0" result="hardAlpha"/>
<feOffset dy="6"/>
<feGaussianBlur stdDeviation="2.5"/>
<feComposite in2="hardAlpha" operator="out"/>
<feColorMatrix type="matrix" values="0 0 0 0 0 0 0 0 0 0 0 0 0 0 0 0 0 0 0.1 0"/>
<feBlend mode="normal" in2="BackgroundImageFix" result="effect1_dropShadow_512_72"/>
<feBlend mode="normal" in="SourceGraphic" in2="effect1_dropShadow_512_72" result="shape"/>
</filter>
</defs>
</svg>
