<svg width="70" height="70" viewBox="0 0 70 70" fill="none" xmlns="http://www.w3.org/2000/svg">
<circle cx="35" cy="35" r="35" fill="#FFE0EB"/>
<g clip-path="url(#clip0_104_44)">
<path d="M34.7656 50H32.4219C31.2587 50 30.3125 49.0538 30.3125 47.8906V33.3594C30.3125 32.1962 31.2587 31.25 32.4219 31.25H34.7656C35.9288 31.25 36.875 32.1962 36.875 33.3594V47.8906C36.875 49.0538 35.9287 50 34.7656 50Z" fill="#FF82AC"/>
<path d="M25.8594 50H23.5156C22.3525 50 21.4062 49.0538 21.4062 47.8906V38.0469C21.4062 36.8837 22.3525 35.9375 23.5156 35.9375H25.8594C27.0225 35.9375 27.9688 36.8837 27.9688 38.0469V47.8906C27.9688 49.0538 27.0225 50 25.8594 50Z" fill="#FF82AC"/>
<path d="M43.6724 50H41.3286C40.1655 50 39.2192 49.0538 39.2192 47.8906V28.4375H37.9313C37.3292 28.4375 36.7988 28.0977 36.5472 27.5506C36.2956 27.0036 36.3828 26.3798 36.7746 25.9226C36.7791 25.9174 36.7837 25.9122 36.7882 25.9071L41.8023 20.3118C41.9801 20.1134 42.234 20 42.5005 20C42.767 20 43.0208 20.1134 43.1987 20.3118L48.2127 25.9071C48.2174 25.9122 48.2219 25.9174 48.2263 25.9226C48.6182 26.3797 48.7053 27.0036 48.4537 27.5506C48.2021 28.0977 47.6717 28.4375 47.0696 28.4375H45.7817V47.8906C45.7817 49.0538 44.8354 50 43.6724 50Z" fill="#FF82AC"/>
</g>
<defs>
<clipPath id="clip0_104_44">
<rect width="30" height="30" fill="white" transform="translate(20 20)"/>
</clipPath>
</defs>
</svg>
