<svg width="41" height="41" viewBox="0 0 41 41" fill="none" xmlns="http://www.w3.org/2000/svg">
<path d="M17.7187 17.2256H22.622V25.0269C21.9536 25.3611 21.0624 25.4725 20.3939 25.4725C18.6115 25.4725 17.7187 24.5813 17.7187 22.5745V17.2256ZM40.1151 25.2331C37.5828 35.9558 26.8385 42.5949 16.1175 40.0626C5.39483 37.532 -1.24428 26.786 1.28799 16.065C3.82027 5.34234 14.5646 -1.29677 25.2856 1.2355C36.0083 3.76778 42.6474 14.5121 40.1151 25.2331ZM29.7549 15.4432C29.7481 15.0612 29.5933 14.6968 29.3232 14.4267C29.053 14.1566 28.6886 14.0018 28.3067 13.995H25.6314L19.5028 6.9751C18.9457 6.3067 18.0545 6.0839 17.1633 6.3067L15.0451 6.97344C14.7109 7.08484 14.5995 7.53044 14.8223 7.75324L21.508 14.1047H11.3672C11.033 14.1047 10.8102 14.3275 10.8102 14.6617V15.7757C10.8102 16.5555 11.4786 17.2239 12.2584 17.2239H13.818V22.5728C13.818 26.5849 15.9346 28.9243 19.5011 28.9243C20.6151 28.9243 21.5063 28.8129 22.622 28.3673V31.9337C22.622 32.9363 23.4018 33.7161 24.4044 33.7161H25.964C26.1374 33.7045 26.3007 33.6303 26.4236 33.5074C26.5465 33.3845 26.6207 33.2212 26.6324 33.0477V17.1142H29.1962C29.5304 17.1142 29.7532 16.8914 29.7532 16.5572L29.7549 15.4432Z" fill="#1814F3"/>
</svg>
