<svg width="31" height="27" viewBox="0 0 31 27" fill="none" xmlns="http://www.w3.org/2000/svg">
<path d="M15.5 0C16.0139 0 16.5067 0.17779 16.87 0.494258C17.2334 0.810725 17.4375 1.23995 17.4375 1.6875V11.8125H29.0625C29.5764 11.8125 30.0692 11.9903 30.4325 12.3068C30.7959 12.6232 31 13.0524 31 13.5C31 13.9476 30.7959 14.3768 30.4325 14.6932C30.0692 15.0097 29.5764 15.1875 29.0625 15.1875H17.4375V25.3125C17.4375 25.7601 17.2334 26.1893 16.87 26.5057C16.5067 26.8222 16.0139 27 15.5 27C14.9861 27 14.4933 26.8222 14.13 26.5057C13.7666 26.1893 13.5625 25.7601 13.5625 25.3125V15.1875H1.9375C1.42364 15.1875 0.930833 15.0097 0.567481 14.6932C0.204129 14.3768 0 13.9476 0 13.5C0 13.0524 0.204129 12.6232 0.567481 12.3068C0.930833 11.9903 1.42364 11.8125 1.9375 11.8125H13.5625V1.6875C13.5625 1.23995 13.7666 0.810725 14.13 0.494258C14.4933 0.17779 14.9861 0 15.5 0Z" fill="black"/>
</svg>
