<svg width="20" height="14" viewBox="0 0 20 14" fill="none" xmlns="http://www.w3.org/2000/svg">
<path d="M0.440231 0.516711C0.722196 0.185861 1.10457 0 1.50327 0C1.90197 0 2.28434 0.185861 2.56631 0.516711L10.0091 9.25249L17.4518 0.516711C17.7354 0.195238 18.1152 0.0173546 18.5095 0.0213755C18.9037 0.0253965 19.2808 0.210999 19.5596 0.538208C19.8384 0.865417 19.9965 1.30805 19.9999 1.77078C20.0034 2.2335 19.8518 2.6793 19.5779 3.01214L11.0721 12.9956C10.7902 13.3265 10.4078 13.5123 10.0091 13.5123C9.61038 13.5123 9.228 13.3265 8.94604 12.9956L0.440231 3.01214C0.158351 2.68119 0 2.23239 0 1.76443C0 1.29646 0.158351 0.84766 0.440231 0.516711Z" fill="black"/>
</svg>
