<svg width="47" height="47" viewBox="0 0 47 47" fill="none" xmlns="http://www.w3.org/2000/svg">
<path d="M22.7715 0.193401C22.9934 0.0666622 23.2445 0 23.5 0C23.7555 0 24.0066 0.0666622 24.2285 0.193401L35.2441 6.48846C35.4689 6.61687 35.6558 6.80242 35.7858 7.0263C35.9158 7.25018 35.9843 7.50445 35.9844 7.76334V19.4986L46.2598 25.3736C46.4837 25.5016 46.67 25.6862 46.7999 25.9089C46.9299 26.1317 46.9989 26.3848 47 26.6426V39.2328C46.9999 39.4917 46.9314 39.7459 46.8014 39.9698C46.6714 40.1937 46.4846 40.3792 46.2598 40.5076L35.2441 46.8027C35.0223 46.9294 34.7711 46.9961 34.5156 46.9961C34.2601 46.9961 34.009 46.9294 33.7871 46.8027L23.5 40.9277L13.2129 46.8056C12.991 46.9324 12.7399 46.9991 12.4844 46.9991C12.2289 46.9991 11.9778 46.9324 11.7559 46.8056L0.74025 40.5106C0.515452 40.3822 0.328588 40.1966 0.198591 39.9727C0.0685943 39.7489 8.35044e-05 39.4946 0 39.2357L0 26.6456C8.35044e-05 26.3867 0.0685943 26.1324 0.198591 25.9085C0.328588 25.6847 0.515452 25.4991 0.74025 25.3707L11.0156 19.4986V7.76334C11.0157 7.50445 11.0842 7.25018 11.2142 7.0263C11.3442 6.80242 11.5311 6.61687 11.7559 6.48846L22.7715 0.193401ZM12.4844 22.0425L4.42975 26.6456L12.4844 31.2486L20.539 26.6456L12.4844 22.0425ZM22.0312 29.1777L13.9531 33.7925V42.9986L22.0312 38.3838V29.1777ZM24.9688 38.3838L33.0469 42.9986V33.7925L24.9688 29.1777V38.3838ZM26.461 26.6456L34.5156 31.2486L42.5702 26.6456L34.5156 22.0425L26.461 26.6456ZM33.0469 19.4986V10.2925L24.9688 14.9103V24.1164L33.0469 19.4986ZM22.0312 24.1164V14.9103L13.9531 10.2925V19.4986L22.0312 24.1164ZM15.4454 7.76334L23.5 12.3664L31.5546 7.76334L23.5 3.16028L15.4454 7.76334ZM44.0625 29.1777L35.9844 33.7925V42.9986L44.0625 38.3838V29.1777ZM11.0156 42.9986V33.7925L2.9375 29.1777V38.3838L11.0156 42.9986Z" fill="#FB7844"/>
</svg>
